<svg width="73" height="562" viewBox="0 0 73 562" fill="none" xmlns="http://www.w3.org/2000/svg">
<path d="M23.8864 501.341H24.1864V500.99L23.8397 501.045L23.8864 501.341ZM23.8864 511.977L23.9395 512.273L24.1864 512.228V511.977H23.8864ZM13.4886 518.352L13.2482 518.173L13.2482 518.173L13.4886 518.352ZM10.7614 523.773L11.0479 523.862L11.0482 523.861L10.7614 523.773ZM12.875 540.886L12.6218 541.047L12.6224 541.048L12.875 540.886ZM21.7727 548.386L21.6449 548.658L21.6462 548.658L21.7727 548.386ZM50.4773 548.386L50.6038 548.658L50.6051 548.658L50.4773 548.386ZM59.3409 540.852L59.5949 541.012L59.5949 541.012L59.3409 540.852ZM61.4545 523.841L61.742 523.755L61.7413 523.753L61.4545 523.841ZM54.4318 514.33L54.2669 514.58L54.2677 514.581L54.4318 514.33ZM48.5 511.977L48.2 511.976L48.1992 512.225L48.4429 512.272L48.5 511.977ZM48.5341 501.341L48.5831 501.045L48.2352 500.987L48.2341 501.34L48.5341 501.341ZM58.0114 504.648L57.8634 504.909L57.8641 504.909L58.0114 504.648ZM65.4432 510.886L65.6752 510.696L65.675 510.696L65.4432 510.886ZM70.25 519.545L70.5332 519.446L70.5332 519.446L70.25 519.545ZM67.6591 546.341L67.9151 546.497L67.9157 546.496L67.6591 546.341ZM55.2841 557.523L55.4192 557.791L55.4201 557.79L55.2841 557.523ZM16.8977 557.489L17.0342 557.221L17.0337 557.221L16.8977 557.489ZM4.55682 546.307L4.81341 546.151L4.81286 546.15L4.55682 546.307ZM1.82955 519.818L2.11416 519.913L2.11494 519.911L1.82955 519.818ZM6.46591 511.125L6.70058 511.312L6.70159 511.311L6.46591 511.125ZM13.8977 504.75L14.047 505.01L14.0479 505.01L13.8977 504.75ZM23.5864 501.341L23.5864 511.977H24.1864L24.1864 501.341H23.5864ZM23.8332 511.682C21.5263 512.097 19.4882 512.872 17.7238 514.009L18.0489 514.513C19.7391 513.424 21.7009 512.675 23.9395 512.273L23.8332 511.682ZM17.7238 514.009C15.9671 515.142 14.4746 516.53 13.2482 518.173L13.729 518.532C14.9117 516.947 16.3511 515.608 18.0489 514.513L17.7238 514.009ZM13.2482 518.173C12.0223 519.815 11.0979 521.653 10.4746 523.685L11.0482 523.861C11.6521 521.892 12.5459 520.117 13.729 518.532L13.2482 518.173ZM10.4748 523.684C9.85162 525.692 9.54091 527.824 9.54091 530.08H10.1409C10.1409 527.88 10.4438 525.808 11.0479 523.862L10.4748 523.684ZM9.54091 530.08C9.54091 534.155 10.5664 537.814 12.6218 541.047L13.1282 540.725C11.1381 537.595 10.1409 534.049 10.1409 530.08H9.54091ZM12.6224 541.048C14.6799 544.262 17.6926 546.797 21.6449 548.658L21.9005 548.115C18.0346 546.294 15.1155 543.829 13.1276 540.725L12.6224 541.048ZM21.6462 548.658C25.6051 550.5 30.4237 551.414 36.0909 551.414V550.814C30.4854 550.814 25.7585 549.909 21.8992 548.114L21.6462 548.658ZM36.0909 551.414C41.8032 551.414 46.6446 550.5 50.6038 548.658L50.3508 548.114C46.4918 549.909 41.7423 550.814 36.0909 550.814V551.414ZM50.6051 548.658C54.5581 546.796 57.56 544.249 59.5949 541.012L59.0869 540.693C57.1218 543.819 54.2146 546.295 50.3495 548.115L50.6051 548.658ZM59.5949 541.012C61.6267 537.779 62.6409 534.144 62.6409 530.114H62.0409C62.0409 534.038 61.0551 537.561 59.0869 540.693L59.5949 541.012ZM62.6409 530.114C62.6409 527.882 62.3418 525.762 61.742 523.755L61.1671 523.927C61.7491 525.874 62.0409 527.936 62.0409 530.114H62.6409ZM61.7413 523.753C61.1183 521.722 60.2059 519.885 59.0034 518.243L58.5193 518.598C59.6804 520.183 60.5635 521.959 61.1677 523.929L61.7413 523.753ZM59.0034 518.243C57.7999 516.6 56.3301 515.211 54.5959 514.078L54.2677 514.581C55.9426 515.675 57.3592 517.014 58.5193 518.598L59.0034 518.243ZM54.5967 514.079C52.8337 512.919 50.8191 512.121 48.5571 511.683L48.4429 512.272C50.6355 512.697 52.5754 513.467 54.2669 514.58L54.5967 514.079ZM48.8 511.978L48.8341 501.342L48.2341 501.34L48.2 511.976L48.8 511.978ZM48.4851 501.637C51.8838 502.2 55.0092 503.291 57.8634 504.909L58.1593 504.387C55.2408 502.732 52.048 501.619 48.5831 501.045L48.4851 501.637ZM57.8641 504.909C60.6953 506.504 63.144 508.56 65.2114 511.077L65.675 510.696C63.5606 508.122 61.0547 506.018 58.1586 504.386L57.8641 504.909ZM65.2112 511.077C67.2559 513.571 68.8414 516.426 69.9668 519.644L70.5332 519.446C69.3859 516.165 67.7668 513.248 65.6752 510.696L65.2112 511.077ZM69.9668 519.644C71.0908 522.859 71.6545 526.371 71.6545 530.182H72.2545C72.2545 526.311 71.6819 522.732 70.5332 519.446L69.9668 519.644ZM71.6545 530.182C71.6545 536.178 70.2351 541.509 67.4025 546.185L67.9157 546.496C70.8103 541.718 72.2545 536.277 72.2545 530.182H71.6545ZM67.403 546.185C64.5481 550.86 60.4666 554.551 55.1481 557.255L55.4201 557.79C60.8288 555.04 64.9973 551.276 67.9151 546.497L67.403 546.185ZM55.149 557.255C49.836 559.934 43.4867 561.28 36.0909 561.28V561.88C43.5587 561.88 50.0049 560.521 55.4192 557.791L55.149 557.255ZM36.0909 561.28C28.6725 561.28 22.3238 559.923 17.0342 557.221L16.7613 557.756C22.1535 560.509 28.6002 561.88 36.0909 561.88V561.28ZM17.0337 557.221C11.7153 554.517 7.64551 550.827 4.81341 546.151L4.30022 546.462C7.1954 551.242 11.3528 555.006 16.7618 557.756L17.0337 557.221ZM4.81286 546.15C1.95774 541.474 0.52727 536.154 0.52727 530.182H-0.0727299C-0.0727299 536.255 1.38317 541.685 4.30077 546.463L4.81286 546.15ZM0.52727 530.182C0.52727 526.506 1.0571 523.084 2.11415 519.913L1.54494 519.723C0.465623 522.961 -0.0727299 526.448 -0.0727299 530.182H0.52727ZM2.11494 519.911C3.14967 516.716 4.67831 513.851 6.70057 511.312L6.23124 510.938C4.1626 513.535 2.60033 516.465 1.54415 519.726L2.11494 519.911ZM6.70159 511.311C8.69975 508.774 11.1473 506.674 14.047 505.01L13.7484 504.49C10.7845 506.19 8.27753 508.34 6.23023 510.939L6.70159 511.311ZM14.0479 505.01C16.9212 503.349 20.2148 502.223 23.9331 501.637L23.8397 501.045C20.0579 501.64 16.6925 502.788 13.7476 504.49L14.0479 505.01ZM55.3182 432.179L55.4546 431.912L55.4542 431.912L55.3182 432.179ZM67.6591 443.395L67.9157 443.239L67.9155 443.239L67.6591 443.395ZM67.6591 475.713L67.9151 475.869L67.916 475.868L67.6591 475.713ZM55.2841 486.895L55.1481 486.627L55.1481 486.627L55.2841 486.895ZM16.8977 486.895L17.0342 486.628L17.0337 486.627L16.8977 486.895ZM4.55682 475.713L4.81341 475.558L4.81319 475.557L4.55682 475.713ZM4.55682 443.395L4.81287 443.551L4.81374 443.55L4.55682 443.395ZM16.8977 432.179L17.0337 432.446L17.0342 432.446L16.8977 432.179ZM21.7386 441.281L21.8652 441.553L21.8671 441.552L21.7386 441.281ZM12.875 448.781L13.1277 448.943L13.129 448.941L12.875 448.781ZM12.875 470.293L13.1285 470.132L13.1276 470.131L12.875 470.293ZM21.7386 477.793L21.6108 478.064L21.6115 478.064L21.7386 477.793ZM50.4773 477.793L50.6038 478.065L50.6057 478.064L50.4773 477.793ZM59.3409 470.293L59.5936 470.454L59.5944 470.453L59.3409 470.293ZM59.3409 448.781L59.5944 448.621L59.5941 448.62L59.3409 448.781ZM50.4773 441.281L50.3495 441.553L50.3501 441.553L50.4773 441.281ZM36.0909 428.388C43.5093 428.388 49.8696 429.745 55.1822 432.446L55.4542 431.912C50.0395 429.158 43.5816 427.788 36.0909 427.788V428.388ZM55.1817 432.446C60.4772 435.15 64.5475 438.852 67.4027 443.551L67.9155 443.239C64.9979 438.438 60.841 434.662 55.4546 431.912L55.1817 432.446ZM67.4025 443.55C70.2352 448.227 71.6545 453.547 71.6545 459.52H72.2545C72.2545 453.447 70.8102 448.018 67.9157 443.239L67.4025 443.55ZM71.6545 459.52C71.6545 465.516 70.2351 470.859 67.4022 475.558L67.916 475.868C70.8103 471.067 72.2545 465.615 72.2545 459.52H71.6545ZM67.403 475.557C64.5481 480.232 60.4666 483.923 55.1481 486.627L55.4201 487.162C60.8288 484.412 64.9973 480.648 67.9151 475.869L67.403 475.557ZM55.1481 486.627C49.8354 489.329 43.4864 490.686 36.0909 490.686V491.286C43.5591 491.286 50.0055 489.915 55.4201 487.162L55.1481 486.627ZM36.0909 490.686C28.6725 490.686 22.3238 489.329 17.0342 486.628L16.7613 487.162C22.1535 489.916 28.6002 491.286 36.0909 491.286V490.686ZM17.0337 486.627C11.7153 483.923 7.64551 480.233 4.81341 475.558L4.30022 475.869C7.1954 480.648 11.3528 484.412 16.7618 487.162L17.0337 486.627ZM4.81319 475.557C1.95785 470.858 0.52727 465.515 0.52727 459.52H-0.0727299C-0.0727299 465.615 1.38306 471.068 4.30044 475.869L4.81319 475.557ZM0.52727 459.52C0.52727 453.547 1.95774 448.227 4.81286 443.551L4.30077 443.239C1.38317 448.017 -0.0727299 453.447 -0.0727299 459.52H0.52727ZM4.81374 443.55C7.64593 438.852 11.7157 435.15 17.0337 432.446L16.7618 431.912C11.3525 434.662 7.19497 438.438 4.29989 443.24L4.81374 443.55ZM17.0342 432.446C22.3238 429.745 28.6725 428.388 36.0909 428.388V427.788C28.6002 427.788 22.1535 429.158 16.7613 431.912L17.0342 432.446ZM36.0909 438.22C30.3783 438.22 25.5474 439.145 21.6102 441.01L21.8671 441.552C25.7026 439.736 30.4399 438.82 36.0909 438.82V438.22ZM21.6121 441.009C17.6585 442.848 14.6561 445.384 12.621 448.622L13.129 448.941C15.0939 445.815 18.0006 443.351 21.8652 441.553L21.6121 441.009ZM12.6224 448.619C10.5666 451.83 9.54091 455.467 9.54091 459.52H10.1409C10.1409 455.573 11.1379 452.051 13.1276 448.943L12.6224 448.619ZM9.54091 459.52C9.54091 463.596 10.5664 467.243 12.6224 470.454L13.1276 470.131C11.1381 467.024 10.1409 463.49 10.1409 459.52H9.54091ZM12.6215 470.453C14.6565 473.667 17.6584 476.203 21.6108 478.064L21.8664 477.521C18.0007 475.701 15.0935 473.236 13.1285 470.132L12.6215 470.453ZM21.6115 478.064C25.5484 479.906 30.3787 480.82 36.0909 480.82V480.22C30.4394 480.22 25.7016 479.315 21.8658 477.521L21.6115 478.064ZM36.0909 480.82C41.8032 480.82 46.6446 479.906 50.6038 478.065L50.3508 477.521C46.4918 479.315 41.7423 480.22 36.0909 480.22V480.82ZM50.6057 478.064C54.5353 476.202 57.5363 473.667 59.5936 470.454L59.0883 470.131C57.1001 473.236 54.192 475.701 50.3488 477.521L50.6057 478.064ZM59.5944 470.453C61.6271 467.242 62.6409 463.595 62.6409 459.52H62.0409C62.0409 463.49 61.0547 467.025 59.0874 470.132L59.5944 470.453ZM62.6409 459.52C62.6409 455.467 61.6269 451.831 59.5944 448.621L59.0874 448.942C61.0549 452.049 62.0409 455.573 62.0409 459.52H62.6409ZM59.5941 448.62C57.5367 445.384 54.5351 442.848 50.6044 441.01L50.3501 441.553C54.1921 443.35 57.0997 445.815 59.0877 448.942L59.5941 448.62ZM50.6051 441.01C46.6455 439.145 41.8036 438.22 36.0909 438.22V438.82C41.7419 438.82 46.4909 439.736 50.3495 441.553L50.6051 441.01ZM19.5227 376.875L19.5563 377.173L19.8227 377.143V376.875H19.5227ZM12.0227 381.375L12.2707 381.544L12.2717 381.542L12.0227 381.375ZM10.6932 398.761L10.9694 398.644L10.9683 398.642L10.6932 398.761ZM14.375 403.636L14.1967 403.878L14.1973 403.878L14.375 403.636ZM23.9545 404.182L24.1165 404.434L24.1199 404.432L23.9545 404.182ZM26.9886 401.08L27.241 401.242L27.2443 401.237L26.9886 401.08ZM29 396.92L29.2815 397.024L29.2828 397.021L29 396.92ZM30.2955 392.659L30.0051 392.584L30.0044 392.586L30.2955 392.659ZM32.0682 385.841L32.3586 385.916L32.3596 385.912L32.0682 385.841ZM43.625 367.636L43.7687 367.9L43.7707 367.899L43.625 367.636ZM62.2386 368.83L62.0722 369.079L62.0735 369.08L62.2386 368.83ZM69.5 377.659L69.2273 377.784L69.2276 377.785L69.5 377.659ZM69.6705 405.17L69.3953 405.051L69.3953 405.051L69.6705 405.17ZM62.6136 414.136L62.7863 414.382L62.7871 414.381L62.6136 414.136ZM51.7045 417.716H51.4045V418.033L51.7207 418.015L51.7045 417.716ZM51.7045 407.148L51.6803 406.849L51.4045 406.871V407.148H51.7045ZM58.0114 404.693L58.2059 404.922L58.2091 404.919L58.0114 404.693ZM61.7273 399.136L62.0092 399.239L62.0104 399.235L61.7273 399.136ZM61.5227 383.727L61.8011 383.615L61.8005 383.614L61.5227 383.727ZM57.5682 378.205L57.7552 377.97L57.7537 377.969L57.5682 378.205ZM46.5227 377.966L46.7208 378.191L46.723 378.189L46.5227 377.966ZM43.25 382.705L43.5249 382.825L43.5254 382.823L43.25 382.705ZM40.9659 389.42L41.2553 389.499L41.256 389.497L40.9659 389.42ZM38.7159 397.67L38.4265 397.592L38.4265 397.592L38.7159 397.67ZM32 410.966L32.222 411.168L32.2227 411.167L32 410.966ZM9.73863 412.568L9.56218 412.811L9.56218 412.811L9.73863 412.568ZM2.75 403.705L3.02408 403.583L3.02345 403.581L2.75 403.705ZM2.71591 378.58L2.98855 378.705L2.98884 378.704L2.71591 378.58ZM9.56818 369.989L9.74327 370.232L9.74417 370.232L9.56818 369.989ZM19.5227 366.716H19.8227V366.409L19.5155 366.416L19.5227 366.716ZM19.4891 376.577C16.1766 376.95 13.5969 378.496 11.7738 381.208L12.2717 381.542C13.994 378.981 16.4143 377.527 19.5563 377.173L19.4891 376.577ZM11.7748 381.206C9.93769 383.904 9.02955 387.285 9.02955 391.33H9.62955C9.62955 387.374 10.5169 384.119 12.2707 381.544L11.7748 381.206ZM9.02955 391.33C9.02955 394.224 9.48893 396.744 10.4181 398.881L10.9683 398.642C10.0792 396.597 9.62955 394.162 9.62955 391.33H9.02955ZM10.417 398.878C11.3208 401.011 12.5787 402.682 14.1967 403.878L14.5533 403.395C13.0349 402.273 11.8383 400.694 10.9694 398.644L10.417 398.878ZM14.1973 403.878C15.7959 405.054 17.62 405.641 19.6591 405.641V405.041C17.7436 405.041 16.045 404.492 14.5527 403.395L14.1973 403.878ZM19.6591 405.641C21.3663 405.641 22.8563 405.243 24.1165 404.434L23.7926 403.929C22.6437 404.666 21.2701 405.041 19.6591 405.041V405.641ZM24.1199 404.432C25.3609 403.613 26.4013 402.548 27.241 401.242L26.7363 400.917C25.9396 402.157 24.9573 403.16 23.7892 403.931L24.1199 404.432ZM27.2443 401.237C28.0504 399.924 28.7294 398.519 29.2814 397.024L28.7186 396.817C28.1797 398.276 27.5178 399.645 26.733 400.923L27.2443 401.237ZM29.2828 397.021C29.8084 395.535 30.243 394.106 30.5865 392.732L30.0044 392.586C29.6661 393.94 29.2371 395.351 28.7172 396.82L29.2828 397.021ZM30.5858 392.735L32.3585 385.916L31.7778 385.765L30.0051 392.584L30.5858 392.735ZM32.3596 385.912C32.9014 383.7 33.6356 381.429 34.5628 379.1L34.0054 378.878C33.0689 381.23 32.3258 383.528 31.7768 385.77L32.3596 385.912ZM34.5628 379.1C35.4846 376.784 36.6984 374.637 38.2046 372.659L37.7272 372.296C36.188 374.317 34.9472 376.512 34.0054 378.878L34.5628 379.1ZM38.2046 372.659C39.7012 370.693 41.555 369.107 43.7687 367.9L43.4813 367.373C41.195 368.62 39.276 370.261 37.7272 372.296L38.2046 372.659ZM43.7707 367.899C45.9674 366.678 48.6081 366.061 51.7045 366.061V365.461C48.5283 365.461 45.7826 366.094 43.4793 367.374L43.7707 367.899ZM51.7045 366.061C55.6044 366.061 59.0569 367.069 62.0722 369.079L62.405 368.58C59.284 366.499 55.7138 365.461 51.7045 365.461V366.061ZM62.0735 369.08C65.0879 371.067 67.4743 373.963 69.2273 377.784L69.7727 377.534C67.9803 373.627 65.5258 370.637 62.4038 368.579L62.0735 369.08ZM69.2276 377.785C70.9777 381.577 71.8591 386.179 71.8591 391.602H72.4591C72.4591 386.116 71.5678 381.423 69.7724 377.533L69.2276 377.785ZM71.8591 391.602C71.8591 396.799 71.0344 401.279 69.3953 405.051L69.9456 405.29C71.6247 401.426 72.4591 396.861 72.4591 391.602H71.8591ZM69.3953 405.051C67.7555 408.825 65.4359 411.768 62.4401 413.892L62.7871 414.381C65.8823 412.187 68.2673 409.152 69.9456 405.29L69.3953 405.051ZM62.441 413.891C59.4243 416.014 55.8438 417.192 51.6884 417.416L51.7207 418.015C55.9744 417.786 59.6666 416.577 62.7863 414.382L62.441 413.891ZM52.0045 417.716V407.148H51.4045V417.716H52.0045ZM51.7288 407.447C54.3048 407.238 56.4693 406.4 58.2058 404.922L57.8169 404.465C56.1898 405.85 54.1498 406.648 51.6803 406.849L51.7288 407.447ZM58.2091 404.919C59.9094 403.428 61.1753 401.532 62.0092 399.239L61.4453 399.034C60.6429 401.241 59.4315 403.049 57.8136 404.468L58.2091 404.919ZM62.0104 399.235C62.8183 396.927 63.2205 394.405 63.2205 391.67H62.6205C62.6205 394.345 62.2271 396.8 61.4441 399.037L62.0104 399.235ZM63.2205 391.67C63.2205 388.662 62.7497 385.975 61.8011 383.615L61.2444 383.839C62.1594 386.116 62.6205 388.724 62.6205 391.67H63.2205ZM61.8005 383.614C60.83 381.234 59.4837 379.348 57.7552 377.97L57.3812 378.439C59.0163 379.743 60.3064 381.539 61.2449 383.841L61.8005 383.614ZM57.7537 377.969C55.9936 376.584 53.9388 375.893 51.6023 375.893V376.493C53.8112 376.493 55.7337 377.143 57.3827 378.44L57.7537 377.969ZM51.6023 375.893C49.4734 375.893 47.7048 376.503 46.3225 377.743L46.723 378.189C47.977 377.065 49.5948 376.493 51.6023 376.493V375.893ZM46.3246 377.741C44.9661 378.935 43.8517 380.554 42.9746 382.586L43.5254 382.823C44.3756 380.855 45.443 379.315 46.7208 378.191L46.3246 377.741ZM42.9751 382.584C42.1042 384.578 41.3381 386.832 40.6758 389.344L41.256 389.497C41.9119 387.009 42.6685 384.785 43.5249 382.825L42.9751 382.584ZM40.6765 389.342L38.4265 397.592L39.0053 397.749L41.2553 389.499L40.6765 389.342ZM38.4265 397.592C36.9124 403.151 34.692 407.536 31.7773 410.765L32.2227 411.167C35.2171 407.85 37.474 403.372 39.0054 397.749L38.4265 397.592ZM31.778 410.764C28.8868 413.944 25.0619 415.541 20.2727 415.541V416.141C25.2108 416.141 29.2041 414.487 32.222 411.168L31.778 410.764ZM20.2727 415.541C16.3077 415.541 12.8594 414.467 9.91508 412.326L9.56218 412.811C12.6178 415.033 16.1922 416.141 20.2727 416.141V415.541ZM9.91508 412.326C6.9618 410.178 4.66396 407.267 3.02407 403.583L2.47593 403.827C4.15422 407.597 6.51546 410.595 9.56218 412.811L9.91508 412.326ZM3.02345 403.581C1.36149 399.898 0.52727 395.736 0.52727 391.091H-0.0727299C-0.0727299 395.809 0.774866 400.057 2.47655 403.828L3.02345 403.581ZM0.52727 391.091C0.52727 386.399 1.35057 382.272 2.98855 378.705L2.44327 378.454C0.763067 382.114 -0.0727299 386.328 -0.0727299 391.091H0.52727ZM2.98884 378.704C4.62881 375.11 6.88136 372.289 9.74327 370.232L9.39309 369.745C6.43682 371.87 4.12119 374.777 2.44297 378.455L2.98884 378.704ZM9.74417 370.232C12.5787 368.178 15.8373 367.105 19.53 367.016L19.5155 366.416C15.7081 366.508 12.3304 367.617 9.39218 369.746L9.74417 370.232ZM19.2227 366.716V376.875H19.8227V366.716H19.2227ZM1.18182 353.173H0.881816V353.473H1.18182V353.173ZM1.18182 340.389L1.06812 340.112L0.881816 340.188V340.389H1.18182ZM55.4545 318.162L55.5682 318.44L55.7545 318.363V318.162H55.4545ZM55.4545 317.344H55.7545V317.142L55.5682 317.066L55.4545 317.344ZM1.18182 295.116H0.881816V295.318L1.06812 295.394L1.18182 295.116ZM1.18182 282.332V282.032H0.881816V282.332H1.18182ZM71 282.332H71.3V282.032H71V282.332ZM71 292.355V292.655H71.3V292.355H71ZM20.4773 292.355V292.055H20.1773V292.355H20.4773ZM20.4773 293.003H20.1773V293.204L20.3638 293.281L20.4773 293.003ZM70.8977 313.594H71.1977V313.392L71.0111 313.316L70.8977 313.594ZM70.8977 321.912L71.0111 322.19L71.1977 322.114V321.912H70.8977ZM20.4432 342.503L20.3298 342.225L20.1432 342.301V342.503H20.4432ZM20.4432 343.151H20.1432V343.451H20.4432V343.151ZM71 343.151H71.3V342.851H71V343.151ZM71 353.173V353.473H71.3V353.173H71ZM1.48182 353.173V340.389H0.881816V353.173H1.48182ZM1.29551 340.667L55.5682 318.44L55.3408 317.884L1.06812 340.112L1.29551 340.667ZM55.7545 318.162V317.344H55.1545V318.162H55.7545ZM55.5682 317.066L1.29551 294.839L1.06812 295.394L55.3408 317.621L55.5682 317.066ZM1.48182 295.116V282.332H0.881816V295.116H1.48182ZM1.18182 282.632H71V282.032H1.18182V282.632ZM70.7 282.332V292.355H71.3V282.332H70.7ZM71 292.055H20.4773V292.655H71V292.055ZM20.1773 292.355V293.003H20.7773V292.355H20.1773ZM20.3638 293.281L70.7843 313.871L71.0111 313.316L20.5907 292.725L20.3638 293.281ZM70.5977 313.594V321.912H71.1977V313.594H70.5977ZM70.7844 321.634L20.3298 342.225L20.5565 342.781L71.0111 322.19L70.7844 321.634ZM20.1432 342.503V343.151H20.7432V342.503H20.1432ZM20.4432 343.451H71V342.851H20.4432V343.451ZM70.7 343.151V353.173H71.3V343.151H70.7ZM71 352.873H1.18182V353.473H71V352.873ZM71 267.017V267.317H71.3V267.017H71ZM1.18182 267.017H0.881816V267.317H1.18182V267.017ZM1.18182 223.244V222.944H0.881816V223.244H1.18182ZM10.25 223.244H10.55V222.944H10.25V223.244ZM10.25 256.483H9.95V256.783H10.25V256.483ZM31.5227 256.483V256.783H31.8227V256.483H31.5227ZM31.5227 225.528V225.228H31.2227V225.528H31.5227ZM40.5568 225.528H40.8568V225.228H40.5568V225.528ZM40.5568 256.483H40.2568V256.783H40.5568V256.483ZM61.9318 256.483V256.783H62.2318V256.483H61.9318ZM61.9318 222.835V222.535H61.6318V222.835H61.9318ZM71 222.835H71.3V222.535H71V222.835ZM71 266.717H1.18182V267.317H71V266.717ZM1.48182 267.017L1.48182 223.244H0.881816L0.881816 267.017H1.48182ZM1.18182 223.544H10.25V222.944H1.18182V223.544ZM9.95 223.244L9.95 256.483H10.55V223.244H9.95ZM10.25 256.783H31.5227V256.183H10.25V256.783ZM31.8227 256.483V225.528H31.2227V256.483H31.8227ZM31.5227 225.828H40.5568V225.228H31.5227V225.828ZM40.2568 225.528V256.483H40.8568V225.528H40.2568ZM40.5568 256.783H61.9318V256.183H40.5568V256.783ZM62.2318 256.483V222.835H61.6318V256.483H62.2318ZM61.9318 223.135H71V222.535H61.9318V223.135ZM70.7 222.835V267.017H71.3V222.835H70.7ZM10.25 212.616V212.916H10.55V212.616H10.25ZM1.18182 212.616H0.881816V212.916H1.18182V212.616ZM1.18182 158.582V158.282H0.881816V158.582H1.18182ZM10.25 158.582H10.55V158.282H10.25V158.582ZM10.25 180.366H9.95V180.666H10.25V180.366ZM71 180.366H71.3V180.066H71V180.366ZM71 190.866V191.166H71.3V190.866H71ZM10.25 190.866V190.566H9.95V190.866H10.25ZM10.25 212.316H1.18182V212.916H10.25V212.316ZM1.48182 212.616L1.48182 158.582H0.881816L0.881816 212.616H1.48182ZM1.18182 158.882H10.25V158.282H1.18182V158.882ZM9.95 158.582V180.366H10.55L10.55 158.582H9.95ZM10.25 180.666H71V180.066H10.25V180.666ZM70.7 180.366V190.866H71.3V180.366H70.7ZM71 190.566H10.25V191.166H71V190.566ZM9.95 190.866V212.616H10.55V190.866H9.95ZM1.18182 136.108V135.808H0.881816V136.108H1.18182ZM71 136.108H71.3V135.808H71V136.108ZM71 146.642V146.942H71.3V146.642H71ZM1.18182 146.642H0.881816V146.942H1.18182V146.642ZM1.18182 136.408H71V135.808H1.18182V136.408ZM70.7 136.108V146.642H71.3V136.108H70.7ZM71 146.342H1.18182V146.942H71V146.342ZM1.48182 146.642V136.108H0.881816V146.642H1.48182ZM23.8864 62.7784H24.1864V62.4274L23.8397 62.4821L23.8864 62.7784ZM23.8864 73.4148L23.9395 73.71L24.1864 73.6656V73.4148H23.8864ZM13.4886 79.7898L13.2482 79.6103L13.2482 79.6103L13.4886 79.7898ZM10.7614 85.2102L11.0479 85.2991L11.0482 85.2982L10.7614 85.2102ZM12.875 102.324L12.6218 102.485L12.6224 102.486L12.875 102.324ZM21.7727 109.824L21.6449 110.095L21.6462 110.096L21.7727 109.824ZM50.4773 109.824L50.6038 110.096L50.6051 110.095L50.4773 109.824ZM59.3409 102.29L59.5949 102.449L59.5949 102.449L59.3409 102.29ZM61.4545 85.2784L61.742 85.1925L61.7413 85.1904L61.4545 85.2784ZM54.4318 75.767L54.2669 76.0177L54.2677 76.0182L54.4318 75.767ZM48.5 73.4148L48.2 73.4138L48.1992 73.662L48.4429 73.7093L48.5 73.4148ZM48.5341 62.7784L48.5831 62.4824L48.2352 62.4248L48.2341 62.7774L48.5341 62.7784ZM58.0114 66.0852L57.8634 66.3462L57.8641 66.3466L58.0114 66.0852ZM65.4432 72.3239L65.6752 72.1337L65.675 72.1334L65.4432 72.3239ZM70.25 80.983L70.5332 80.8839L70.5332 80.8839L70.25 80.983ZM67.6591 107.778L67.9151 107.935L67.9157 107.934L67.6591 107.778ZM55.2841 118.96L55.4192 119.228L55.4201 119.228L55.2841 118.96ZM16.8977 118.926L17.0342 118.659L17.0337 118.659L16.8977 118.926ZM4.55682 107.744L4.81341 107.589L4.81286 107.588L4.55682 107.744ZM1.82955 81.2557L2.11416 81.3506L2.11494 81.3481L1.82955 81.2557ZM6.46591 72.5625L6.70058 72.7494L6.70159 72.7481L6.46591 72.5625ZM13.8977 66.1875L14.047 66.4477L14.0479 66.4472L13.8977 66.1875ZM23.5864 62.7784V73.4148H24.1864V62.7784H23.5864ZM23.8332 73.1195C21.5263 73.5348 19.4882 74.3091 17.7238 75.4467L18.0489 75.951C19.7391 74.8613 21.7009 74.113 23.9395 73.71L23.8332 73.1195ZM17.7238 75.4467C15.9671 76.5793 14.4746 77.9674 13.2482 79.6103L13.729 79.9692C14.9117 78.3849 16.3511 77.0457 18.0489 75.951L17.7238 75.4467ZM13.2482 79.6103C12.0223 81.2526 11.0979 83.0906 10.4746 85.1222L11.0482 85.2982C11.6521 83.3299 12.5459 81.5542 13.729 79.9692L13.2482 79.6103ZM10.4748 85.1213C9.85162 87.1295 9.54091 89.2619 9.54091 91.517H10.1409C10.1409 89.3176 10.4438 87.2455 11.0479 85.2991L10.4748 85.1213ZM9.54091 91.517C9.54091 95.5928 10.5664 99.2516 12.6218 102.485L13.1282 102.163C11.1381 99.0325 10.1409 95.4868 10.1409 91.517H9.54091ZM12.6224 102.486C14.6799 105.699 17.6926 108.234 21.6449 110.095L21.9005 109.552C18.0346 107.732 15.1155 105.267 13.1276 102.162L12.6224 102.486ZM21.6462 110.096C25.6051 111.937 30.4237 112.851 36.0909 112.851V112.251C30.4854 112.251 25.7585 111.347 21.8992 109.552L21.6462 110.096ZM36.0909 112.851C41.8032 112.851 46.6446 111.937 50.6038 110.096L50.3508 109.552C46.4918 111.347 41.7423 112.251 36.0909 112.251V112.851ZM50.6051 110.095C54.5581 108.234 57.56 105.687 59.5949 102.449L59.0869 102.13C57.1218 105.256 54.2146 107.732 50.3495 109.552L50.6051 110.095ZM59.5949 102.449C61.6267 99.2169 62.6409 95.5814 62.6409 91.5511H62.0409C62.0409 95.4754 61.0551 98.999 59.0869 102.13L59.5949 102.449ZM62.6409 91.5511C62.6409 89.3195 62.3418 87.1995 61.742 85.1925L61.1671 85.3643C61.7491 87.3119 62.0409 89.3737 62.0409 91.5511H62.6409ZM61.7413 85.1904C61.1183 83.1599 60.2059 81.3226 59.0034 79.6807L58.5193 80.0352C59.6804 81.6206 60.5635 83.397 61.1677 85.3664L61.7413 85.1904ZM59.0034 79.6807C57.7999 78.0374 56.3301 76.6489 54.5959 75.5159L54.2677 76.0182C55.9426 77.1125 57.3592 78.4512 58.5193 80.0352L59.0034 79.6807ZM54.5967 75.5164C52.8337 74.3565 50.8191 73.5588 48.5571 73.1203L48.4429 73.7093C50.6355 74.1344 52.5754 74.9048 54.2669 76.0177L54.5967 75.5164ZM48.8 73.4157L48.8341 62.7794L48.2341 62.7774L48.2 73.4138L48.8 73.4157ZM48.4851 63.0744C51.8838 63.6371 55.0092 64.7281 57.8634 66.3462L58.1593 65.8242C55.2408 64.1697 52.048 63.0561 48.5831 62.4824L48.4851 63.0744ZM57.8641 66.3466C60.6953 67.942 63.144 69.9974 65.2114 72.5143L65.675 72.1334C63.5606 69.5594 61.0547 67.4558 58.1586 65.8239L57.8641 66.3466ZM65.2112 72.5141C67.2559 75.0081 68.8414 77.8633 69.9668 81.082L70.5332 80.8839C69.3859 77.6026 67.7668 74.685 65.6752 72.1337L65.2112 72.5141ZM69.9668 81.082C71.0908 84.2967 71.6545 87.8083 71.6545 91.6193H72.2545C72.2545 87.7486 71.6819 84.1692 70.5332 80.8839L69.9668 81.082ZM71.6545 91.6193C71.6545 97.6153 70.2351 102.947 67.4025 107.623L67.9157 107.934C70.8103 103.155 72.2545 97.7143 72.2545 91.6193H71.6545ZM67.403 107.622C64.5481 112.298 60.4666 115.988 55.1481 118.693L55.4201 119.228C60.8288 116.477 64.9973 112.714 67.9151 107.935L67.403 107.622ZM55.149 118.692C49.836 121.371 43.4867 122.717 36.0909 122.717V123.317C43.5587 123.317 50.0049 121.958 55.4192 119.228L55.149 118.692ZM36.0909 122.717C28.6725 122.717 22.3238 121.36 17.0342 118.659L16.7613 119.193C22.1535 121.947 28.6002 123.317 36.0909 123.317V122.717ZM17.0337 118.659C11.7153 115.954 7.64551 112.264 4.81341 107.589L4.30022 107.9C7.1954 112.679 11.3528 116.443 16.7618 119.194L17.0337 118.659ZM4.81286 107.588C1.95774 102.912 0.52727 97.5919 0.52727 91.6193H-0.0727299C-0.0727299 97.6922 1.38317 103.122 4.30077 107.901L4.81286 107.588ZM0.52727 91.6193C0.52727 87.9439 1.0571 84.5217 2.11415 81.3505L1.54494 81.1608C0.465623 84.3988 -0.0727299 87.8856 -0.0727299 91.6193H0.52727ZM2.11494 81.3481C3.14967 78.154 4.67831 75.2885 6.70057 72.7494L6.23124 72.3756C4.1626 74.9729 2.60033 77.9028 1.54415 81.1632L2.11494 81.3481ZM6.70159 72.7481C8.69975 70.2111 11.1473 68.1111 14.047 66.4477L13.7484 65.9273C10.7845 67.6275 8.27753 69.7775 6.23023 72.3769L6.70159 72.7481ZM14.0479 66.4472C16.9212 64.7861 20.2148 63.6607 23.9331 63.0748L23.8397 62.4821C20.0579 63.078 16.6925 64.2253 13.7476 65.9278L14.0479 66.4472ZM19.5227 12.0938L19.5563 12.3919L19.8227 12.3618V12.0938H19.5227ZM12.0227 16.5938L12.2707 16.7626L12.2717 16.7611L12.0227 16.5938ZM10.6932 33.9801L10.9694 33.863L10.9683 33.8605L10.6932 33.9801ZM14.375 38.8551L14.1967 39.0964L14.1973 39.0968L14.375 38.8551ZM23.9545 39.4006L24.1165 39.6531L24.1199 39.6509L23.9545 39.4006ZM26.9886 36.2983L27.241 36.4606L27.2443 36.4553L26.9886 36.2983ZM29 32.1392L29.2815 32.2431L29.2828 32.2393L29 32.1392ZM30.2955 27.8778L30.0051 27.8023L30.0044 27.8051L30.2955 27.8778ZM32.0682 21.0597L32.3586 21.1352L32.3596 21.131L32.0682 21.0597ZM43.625 2.85511L43.7687 3.11849L43.7707 3.11736L43.625 2.85511ZM62.2386 4.0483L62.0722 4.29791L62.0735 4.29876L62.2386 4.0483ZM69.5 12.8778L69.2273 13.0029L69.2276 13.0036L69.5 12.8778ZM69.6705 40.3892L69.3953 40.2696L69.3953 40.2696L69.6705 40.3892ZM62.6136 49.3551L62.7863 49.6005L62.7871 49.5998L62.6136 49.3551ZM51.7045 52.9347H51.4045V53.2513L51.7207 53.2342L51.7045 52.9347ZM51.7045 42.3665L51.6803 42.0675L51.4045 42.0898V42.3665H51.7045ZM58.0114 39.9119L58.2059 40.1404L58.2091 40.1375L58.0114 39.9119ZM61.7273 34.3551L62.0092 34.4576L62.0104 34.4542L61.7273 34.3551ZM61.5227 18.946L61.8011 18.8341L61.8005 18.8327L61.5227 18.946ZM57.5682 13.4233L57.7552 13.1887L57.7537 13.1875L57.5682 13.4233ZM46.5227 13.1847L46.7208 13.41L46.723 13.408L46.5227 13.1847ZM43.25 17.9233L43.5249 18.0434L43.5254 18.0422L43.25 17.9233ZM40.9659 24.6392L41.2553 24.7181L41.256 24.7157L40.9659 24.6392ZM38.7159 32.8892L38.4265 32.8103L38.4265 32.8104L38.7159 32.8892ZM32 46.1847L32.222 46.3865L32.2227 46.3857L32 46.1847ZM9.73863 47.7869L9.56218 48.0296L9.56218 48.0296L9.73863 47.7869ZM2.75 38.9233L3.02408 38.8013L3.02345 38.7999L2.75 38.9233ZM2.71591 13.7983L2.98855 13.9235L2.98884 13.9228L2.71591 13.7983ZM9.56818 5.20738L9.74327 5.45099L9.74417 5.45033L9.56818 5.20738ZM19.5227 1.93466H19.8227V1.6273L19.5155 1.63475L19.5227 1.93466ZM19.4891 11.7956C16.1766 12.1689 13.5969 13.7151 11.7738 16.4264L12.2717 16.7611C13.994 14.1997 16.4143 12.7459 19.5563 12.3919L19.4891 11.7956ZM11.7748 16.4249C9.93769 19.1224 9.02955 22.5034 9.02955 26.5483H9.62955C9.62955 22.5932 10.5169 19.3379 12.2707 16.7626L11.7748 16.4249ZM9.02955 26.5483C9.02955 29.4429 9.48893 31.9627 10.4181 34.0997L10.9683 33.8605C10.0792 31.8157 9.62955 29.381 9.62955 26.5483H9.02955ZM10.417 34.0972C11.3208 36.2293 12.5787 37.9005 14.1967 39.0964L14.5533 38.6139C13.0349 37.4916 11.8383 35.9128 10.9694 33.863L10.417 34.0972ZM14.1973 39.0968C15.7959 40.2723 17.62 40.8597 19.6591 40.8597V40.2597C17.7436 40.2597 16.045 39.7107 14.5527 38.6134L14.1973 39.0968ZM19.6591 40.8597C21.3663 40.8597 22.8563 40.4615 24.1165 39.6531L23.7926 39.1481C22.6437 39.8851 21.2701 40.2597 19.6591 40.2597V40.8597ZM24.1199 39.6509C25.3609 38.8314 26.4013 37.7666 27.241 36.4605L26.7363 36.1361C25.9396 37.3754 24.9573 38.3789 23.7892 39.1502L24.1199 39.6509ZM27.2443 36.4553C28.0504 35.1424 28.7294 33.7382 29.2814 32.2431L28.7186 32.0353C28.1797 33.4947 27.5178 34.8633 26.733 36.1413L27.2443 36.4553ZM29.2828 32.2393C29.8084 30.754 30.243 29.3244 30.5865 27.9506L30.0044 27.8051C29.6661 29.1585 29.2371 30.5698 28.7172 32.0391L29.2828 32.2393ZM30.5858 27.9533L32.3585 21.1351L31.7778 20.9842L30.0051 27.8023L30.5858 27.9533ZM32.3596 21.131C32.9014 18.9185 33.6356 16.6476 34.5628 14.3183L34.0054 14.0964C33.0689 16.449 32.3258 18.7463 31.7768 20.9883L32.3596 21.131ZM34.5628 14.3183C35.4846 12.0027 36.6984 9.85603 38.2046 7.87775L37.7272 7.51429C36.188 9.53601 34.9472 11.7303 34.0054 14.0964L34.5628 14.3183ZM38.2046 7.87775C39.7012 5.91202 41.555 4.32594 43.7687 3.11848L43.4813 2.59174C41.195 3.83883 39.276 5.48002 37.7272 7.51429L38.2046 7.87775ZM43.7707 3.11736C45.9674 1.89699 48.6081 1.28011 51.7045 1.28011V0.680112C48.5283 0.680112 45.7826 1.31324 43.4793 2.59286L43.7707 3.11736ZM51.7045 1.28011C55.6044 1.28011 59.0569 2.28772 62.0722 4.29791L62.405 3.79868C59.284 1.71796 55.7138 0.680112 51.7045 0.680112V1.28011ZM62.0735 4.29876C65.0879 6.286 67.4743 9.18218 69.2273 13.0029L69.7727 12.7527C67.9803 8.84622 65.5258 5.85604 62.4038 3.79783L62.0735 4.29876ZM69.2276 13.0036C70.9777 16.7954 71.8591 21.3978 71.8591 26.821H72.4591C72.4591 21.3352 71.5678 16.6421 69.7724 12.7521L69.2276 13.0036ZM71.8591 26.821C71.8591 32.0173 71.0344 36.4975 69.3953 40.2696L69.9456 40.5088C71.6247 36.6445 72.4591 32.0793 72.4591 26.821H71.8591ZM69.3953 40.2696C67.7555 44.0436 65.4359 46.9865 62.4401 49.1104L62.7871 49.5998C65.8823 47.4055 68.2673 44.3712 69.9456 40.5088L69.3953 40.2696ZM62.441 49.1098C59.4243 51.2326 55.8438 52.4105 51.6884 52.6351L51.7207 53.2342C55.9744 53.0043 59.6666 51.7958 62.7863 49.6005L62.441 49.1098ZM52.0045 52.9347V42.3665H51.4045V52.9347H52.0045ZM51.7288 42.6655C54.3048 42.4566 56.4693 41.6188 58.2058 40.1404L57.8169 39.6835C56.1898 41.0687 54.1498 41.8672 51.6803 42.0675L51.7288 42.6655ZM58.2091 40.1375C59.9094 38.6469 61.1753 36.7509 62.0092 34.4576L61.4453 34.2526C60.6429 36.4593 59.4315 38.2679 57.8136 39.6863L58.2091 40.1375ZM62.0104 34.4542C62.8183 32.146 63.2205 29.6234 63.2205 26.8892H62.6205C62.6205 29.5641 62.2271 32.0188 61.4441 34.256L62.0104 34.4542ZM63.2205 26.8892C63.2205 23.8808 62.7497 21.194 61.8011 18.8341L61.2444 19.0579C62.1594 21.3344 62.6205 23.9431 62.6205 26.8892H63.2205ZM61.8005 18.8327C60.83 16.4527 59.4837 14.5668 57.7552 13.1887L57.3812 13.6579C59.0163 14.9616 60.3064 16.7575 61.2449 19.0593L61.8005 18.8327ZM57.7537 13.1875C55.9936 11.8029 53.9388 11.1119 51.6023 11.1119V11.7119C53.8112 11.7119 55.7337 12.3619 57.3827 13.6591L57.7537 13.1875ZM51.6023 11.1119C49.4734 11.1119 47.7048 11.722 46.3225 12.9613L46.723 13.408C47.977 12.2837 49.5948 11.7119 51.6023 11.7119V11.1119ZM46.3246 12.9594C44.9661 14.1539 43.8517 15.7732 42.9746 17.8044L43.5254 18.0422C44.3756 16.0734 45.443 14.5336 46.7208 13.4099L46.3246 12.9594ZM42.9751 17.8032C42.1042 19.7971 41.3381 22.0506 40.6758 24.5627L41.256 24.7157C41.9119 22.2278 42.6685 20.0041 43.5249 18.0434L42.9751 17.8032ZM40.6765 24.5603L38.4265 32.8103L39.0053 32.9681L41.2553 24.7181L40.6765 24.5603ZM38.4265 32.8104C36.9124 38.3696 34.692 42.755 31.7773 45.9836L32.2227 46.3857C35.2171 43.0688 37.474 38.5906 39.0054 32.968L38.4265 32.8104ZM31.778 45.9829C28.8868 49.1632 25.0619 50.7597 20.2727 50.7597V51.3597C25.2108 51.3597 29.2041 49.7061 32.222 46.3865L31.778 45.9829ZM20.2727 50.7597C16.3077 50.7597 12.8594 49.6856 9.91508 47.5443L9.56218 48.0296C12.6178 50.2519 16.1922 51.3597 20.2727 51.3597V50.7597ZM9.91508 47.5443C6.9618 45.3965 4.66396 42.4854 3.02407 38.8013L2.47593 39.0453C4.15422 42.8157 6.51546 45.8138 9.56218 48.0296L9.91508 47.5443ZM3.02345 38.7999C1.36149 35.1167 0.52727 30.9551 0.52727 26.3097H-0.0727299C-0.0727299 31.0279 0.774866 35.2754 2.47655 39.0467L3.02345 38.7999ZM0.52727 26.3097C0.52727 21.6175 1.35057 17.4911 2.98855 13.9235L2.44327 13.6731C0.763067 17.3327 -0.0727299 21.5472 -0.0727299 26.3097H0.52727ZM2.98884 13.9228C4.62881 10.3284 6.88136 7.50799 9.74327 5.45099L9.39309 4.96378C6.43682 7.0886 4.12119 9.99549 2.44297 13.6738L2.98884 13.9228ZM9.74417 5.45033C12.5787 3.39698 15.8373 2.32409 19.53 2.23457L19.5155 1.63475C15.7081 1.72704 12.3304 2.83597 9.39218 4.96443L9.74417 5.45033ZM19.2227 1.93466V12.0938H19.8227V1.93466H19.2227Z" fill="#8B8B8B"/>
</svg>
