<svg width="60" height="57" viewBox="0 0 60 57" fill="none" xmlns="http://www.w3.org/2000/svg">
<path d="M3.35444 16.1226C1.14284 14.0189 3.56121 13.785 6.77521 9.78313C9.98922 5.78127 23.9849 -1.42218 31.0917 0.979024C38.1984 3.38022 10.0544 27.5896 12.266 28.9921C14.4776 30.3946 34.4654 15.3445 38.8886 20.2533C43.3118 25.162 27.1697 41.7981 34.2293 41.7981C41.2889 41.7981 62.1694 31.6133 59.2158 35.3593C56.2622 39.1053 31.0917 63.2467 23.9849 54.6694C16.8782 46.0921 27.8125 30.8488 26.3381 30.8488C24.8638 30.8487 5.56603 46.2764 1.14284 38.5625C-3.28034 30.8487 16.624 11.915 15.1496 11.9151C13.6752 11.9151 5.56603 18.2263 3.35444 16.1226Z" fill="white"/>
</svg>
