<svg width="198" height="40" viewBox="0 0 198 40" fill="none" xmlns="http://www.w3.org/2000/svg">
<path d="M0.986 18V0.48H2.81V18H0.986ZM2.33 9.912V8.256L10.082 8.232V9.888L2.33 9.912ZM2.33 2.112V0.48H10.538V2.112H2.33ZM14.4157 18V0.48H16.2397V18H14.4157ZM15.7597 18V16.344H23.9917V18H15.7597ZM25.6904 18L32.1464 0.48H35.4104L42.0824 18H40.2104L33.9944 1.632L34.9784 2.136H32.4584L33.4904 1.632L27.5144 18H25.6904ZM29.1464 12.432L29.7464 10.776H37.8824L38.5064 12.432H29.1464ZM47.8588 18L43.0107 0.48H44.8828L49.2747 16.824L48.4348 16.344H50.7628L49.8508 16.824L53.4268 1.248H55.1548L51.2188 18H47.8588ZM58.3948 18L54.0748 1.248H55.8508L59.8348 16.824L58.9468 16.344H61.3228L60.4108 16.824L64.3708 0.48H66.1948L61.7548 18H58.3948ZM69.7282 18V0.48H71.5522V18H69.7282ZM71.0722 18V16.344H79.3042V18H71.0722ZM82.6657 18V0.48H84.4897V18H82.6657ZM84.0577 18V16.344H92.8177V18H84.0577ZM84.0577 9.912V8.28H92.0017V9.912H84.0577ZM84.0577 2.136V0.48H92.5537V2.136H84.0577ZM102.532 18.408C101.06 18.408 99.8197 18.176 98.8117 17.712C97.8037 17.232 97.0357 16.576 96.5077 15.744C95.9957 14.896 95.7397 13.944 95.7397 12.888H97.5637C97.5637 13.56 97.7237 14.192 98.0437 14.784C98.3797 15.36 98.9077 15.832 99.6277 16.2C100.364 16.552 101.332 16.728 102.532 16.728C103.636 16.728 104.548 16.568 105.268 16.248C106.004 15.928 106.548 15.496 106.9 14.952C107.268 14.408 107.452 13.8 107.452 13.128C107.452 12.28 107.116 11.576 106.444 11.016C105.788 10.44 104.796 10.096 103.468 9.984L101.452 9.792C99.9477 9.664 98.7477 9.2 97.8517 8.4C96.9717 7.584 96.5317 6.512 96.5317 5.184C96.5317 4.176 96.7717 3.288 97.2517 2.52C97.7317 1.752 98.4117 1.144 99.2917 0.696C100.188 0.248 101.26 0.0239997 102.508 0.0239997C103.772 0.0239997 104.852 0.256 105.748 0.719999C106.66 1.168 107.356 1.792 107.836 2.592C108.316 3.392 108.556 4.32 108.556 5.376H106.732C106.732 4.736 106.588 4.136 106.3 3.576C106.012 3.016 105.556 2.568 104.932 2.232C104.308 1.88 103.5 1.704 102.508 1.704C101.564 1.704 100.78 1.864 100.156 2.184C99.5477 2.504 99.0917 2.928 98.7877 3.456C98.4997 3.984 98.3557 4.56 98.3557 5.184C98.3557 5.968 98.6357 6.632 99.1957 7.176C99.7557 7.72 100.564 8.032 101.62 8.112L103.636 8.304C104.82 8.4 105.828 8.664 106.66 9.096C107.508 9.512 108.156 10.064 108.604 10.752C109.052 11.424 109.276 12.216 109.276 13.128C109.276 14.152 108.996 15.064 108.436 15.864C107.892 16.664 107.116 17.288 106.108 17.736C105.1 18.184 103.908 18.408 102.532 18.408ZM119.266 18.408C117.794 18.408 116.554 18.176 115.546 17.712C114.538 17.232 113.77 16.576 113.242 15.744C112.73 14.896 112.474 13.944 112.474 12.888H114.298C114.298 13.56 114.458 14.192 114.778 14.784C115.114 15.36 115.642 15.832 116.362 16.2C117.098 16.552 118.066 16.728 119.266 16.728C120.37 16.728 121.282 16.568 122.002 16.248C122.738 15.928 123.282 15.496 123.634 14.952C124.002 14.408 124.186 13.8 124.186 13.128C124.186 12.28 123.85 11.576 123.178 11.016C122.522 10.44 121.53 10.096 120.202 9.984L118.186 9.792C116.682 9.664 115.482 9.2 114.586 8.4C113.706 7.584 113.266 6.512 113.266 5.184C113.266 4.176 113.506 3.288 113.986 2.52C114.466 1.752 115.146 1.144 116.026 0.696C116.922 0.248 117.994 0.0239997 119.242 0.0239997C120.506 0.0239997 121.586 0.256 122.482 0.719999C123.394 1.168 124.09 1.792 124.57 2.592C125.05 3.392 125.29 4.32 125.29 5.376H123.466C123.466 4.736 123.322 4.136 123.034 3.576C122.746 3.016 122.29 2.568 121.666 2.232C121.042 1.88 120.234 1.704 119.242 1.704C118.298 1.704 117.514 1.864 116.89 2.184C116.282 2.504 115.826 2.928 115.522 3.456C115.234 3.984 115.09 4.56 115.09 5.184C115.09 5.968 115.37 6.632 115.93 7.176C116.49 7.72 117.298 8.032 118.354 8.112L120.37 8.304C121.554 8.4 122.562 8.664 123.394 9.096C124.242 9.512 124.89 10.064 125.338 10.752C125.786 11.424 126.01 12.216 126.01 13.128C126.01 14.152 125.73 15.064 125.17 15.864C124.626 16.664 123.85 17.288 122.842 17.736C121.834 18.184 120.642 18.408 119.266 18.408ZM130.384 18V0.48H132.208V18H130.384ZM131.728 18V16.344H139.96V18H131.728ZM150.744 18.408C149.224 18.408 147.904 18.136 146.784 17.592C145.664 17.048 144.736 16.328 144 15.432C143.264 14.536 142.712 13.56 142.344 12.504C141.976 11.448 141.792 10.416 141.792 9.408V8.976C141.792 7.904 141.976 6.84 142.344 5.784C142.728 4.712 143.296 3.744 144.048 2.88C144.8 2.016 145.736 1.328 146.856 0.816C147.976 0.288 149.272 0.0239997 150.744 0.0239997C152.232 0.0239997 153.528 0.288 154.632 0.816C155.752 1.328 156.688 2.016 157.44 2.88C158.192 3.744 158.752 4.712 159.12 5.784C159.504 6.84 159.696 7.904 159.696 8.976V9.432C159.696 10.44 159.512 11.472 159.144 12.528C158.792 13.568 158.24 14.536 157.488 15.432C156.752 16.328 155.824 17.048 154.704 17.592C153.584 18.136 152.264 18.408 150.744 18.408ZM150.744 16.728C151.864 16.728 152.864 16.528 153.744 16.128C154.624 15.712 155.368 15.152 155.976 14.448C156.584 13.728 157.048 12.92 157.368 12.024C157.688 11.128 157.848 10.192 157.848 9.216C157.848 8.192 157.688 7.232 157.368 6.336C157.048 5.44 156.576 4.648 155.952 3.96C155.344 3.256 154.6 2.704 153.72 2.304C152.84 1.904 151.848 1.704 150.744 1.704C149.656 1.704 148.672 1.904 147.792 2.304C146.912 2.704 146.16 3.256 145.536 3.96C144.928 4.648 144.456 5.44 144.12 6.336C143.8 7.232 143.64 8.192 143.64 9.216C143.64 10.192 143.8 11.128 144.12 12.024C144.44 12.92 144.904 13.728 145.512 14.448C146.12 15.152 146.864 15.712 147.744 16.128C148.64 16.528 149.64 16.728 150.744 16.728ZM171.557 18.408C170.037 18.408 168.717 18.136 167.597 17.592C166.477 17.048 165.549 16.328 164.813 15.432C164.077 14.536 163.525 13.56 163.157 12.504C162.789 11.448 162.605 10.416 162.605 9.408V8.976C162.605 7.904 162.789 6.84 163.157 5.784C163.541 4.712 164.109 3.744 164.861 2.88C165.613 2.016 166.549 1.328 167.669 0.816C168.789 0.288 170.085 0.0239997 171.557 0.0239997C173.045 0.0239997 174.341 0.288 175.445 0.816C176.565 1.328 177.501 2.016 178.253 2.88C179.005 3.744 179.565 4.712 179.933 5.784C180.317 6.84 180.509 7.904 180.509 8.976V9.432C180.509 10.44 180.325 11.472 179.957 12.528C179.605 13.568 179.053 14.536 178.301 15.432C177.565 16.328 176.637 17.048 175.517 17.592C174.397 18.136 173.077 18.408 171.557 18.408ZM171.557 16.728C172.677 16.728 173.677 16.528 174.557 16.128C175.437 15.712 176.181 15.152 176.789 14.448C177.397 13.728 177.861 12.92 178.181 12.024C178.501 11.128 178.661 10.192 178.661 9.216C178.661 8.192 178.501 7.232 178.181 6.336C177.861 5.44 177.389 4.648 176.765 3.96C176.157 3.256 175.413 2.704 174.533 2.304C173.653 1.904 172.661 1.704 171.557 1.704C170.469 1.704 169.485 1.904 168.605 2.304C167.725 2.704 166.973 3.256 166.349 3.96C165.741 4.648 165.269 5.44 164.933 6.336C164.613 7.232 164.453 8.192 164.453 9.216C164.453 10.192 164.613 11.128 164.933 12.024C165.253 12.92 165.717 13.728 166.325 14.448C166.933 15.152 167.677 15.712 168.557 16.128C169.453 16.528 170.453 16.728 171.557 16.728ZM195.705 18L188.073 9.72H185.817L194.049 0.48H196.161L188.577 8.952L188.409 7.632L197.985 18H195.705ZM184.689 18V0.48H186.513V18H184.689ZM47.2064 39V31.7H48.1964L50.4964 36.75H50.6764L52.9664 31.7H53.9764V39H53.2164V32.55L53.2764 32.56L51.0564 37.46H50.0564L47.8264 32.56L47.9064 32.55V39H47.2064ZM55.4491 39L58.1391 31.7H59.4991L62.2791 39H61.4991L58.9091 32.18L59.3191 32.39H58.2691L58.6991 32.18L56.2091 39H55.4491ZM56.8891 36.68L57.1391 35.99H60.5291L60.7891 36.68H56.8891ZM68.3394 39L65.1594 35.55H64.2194L67.6494 31.7H68.5294L65.3694 35.23L65.2994 34.68L69.2894 39H68.3394ZM63.7494 39V31.7H64.5094V39H63.7494ZM70.3314 39V31.7H71.0914V39H70.3314ZM70.9114 39V38.31H74.5614V39H70.9114ZM70.9114 35.63V34.95H74.2214V35.63H70.9114ZM70.9114 32.39V31.7H74.4514V32.39H70.9114ZM79.1968 39.17C78.5301 39.17 77.9768 39.0433 77.5368 38.79C77.0968 38.5367 76.7668 38.1833 76.5468 37.73C76.3268 37.27 76.2168 36.7433 76.2168 36.15V31.7H76.9768V36.24C76.9768 36.6867 77.0568 37.0767 77.2168 37.41C77.3835 37.7433 77.6301 38.0033 77.9568 38.19C78.2901 38.3767 78.7035 38.47 79.1968 38.47C79.6835 38.47 80.0901 38.38 80.4168 38.2C80.7435 38.0133 80.9901 37.7533 81.1568 37.42C81.3235 37.08 81.4068 36.6867 81.4068 36.24V31.7H82.1668V36.15C82.1668 36.7433 82.0568 37.27 81.8368 37.73C81.6168 38.1833 81.2868 38.5367 80.8468 38.79C80.4135 39.0433 79.8635 39.17 79.1968 39.17ZM84.866 36.33V35.66H86.566C86.9593 35.66 87.2793 35.5867 87.526 35.44C87.7727 35.2867 87.956 35.0867 88.076 34.84C88.196 34.5867 88.256 34.3067 88.256 34C88.256 33.6867 88.196 33.4067 88.076 33.16C87.956 32.9067 87.7727 32.7067 87.526 32.56C87.2793 32.4133 86.9593 32.34 86.566 32.34H84.866V31.67H86.436C87.0227 31.67 87.506 31.7667 87.886 31.96C88.2727 32.1533 88.5593 32.42 88.746 32.76C88.9393 33.1 89.036 33.49 89.036 33.93V34.07C89.036 34.5033 88.9393 34.8933 88.746 35.24C88.5593 35.58 88.2727 35.8467 87.886 36.04C87.506 36.2333 87.0227 36.33 86.436 36.33H84.866ZM84.306 39V31.67H85.066V39H84.306ZM93.4988 36.33V35.66H95.1988C95.5922 35.66 95.9122 35.5867 96.1588 35.44C96.4055 35.2867 96.5888 35.0867 96.7088 34.84C96.8288 34.5867 96.8888 34.3067 96.8888 34C96.8888 33.6867 96.8288 33.4067 96.7088 33.16C96.5888 32.9067 96.4055 32.7067 96.1588 32.56C95.9122 32.4133 95.5922 32.34 95.1988 32.34H93.4988V31.67H95.0688C95.6555 31.67 96.1388 31.7667 96.5188 31.96C96.9055 32.1533 97.1922 32.42 97.3788 32.76C97.5722 33.1 97.6688 33.49 97.6688 33.93V34.07C97.6688 34.5033 97.5722 34.8933 97.3788 35.24C97.1922 35.58 96.9055 35.8467 96.5188 36.04C96.1388 36.2333 95.6555 36.33 95.0688 36.33H93.4988ZM92.9388 39V31.67H93.6988V39H92.9388ZM99.2377 39V31.67H99.9977V39H99.2377ZM103.768 39L101.278 35.77H102.168L104.698 39H103.768ZM99.6877 36.23V35.55H101.648C102.008 35.55 102.308 35.48 102.548 35.34C102.788 35.2 102.968 35.01 103.088 34.77C103.208 34.53 103.268 34.2567 103.268 33.95C103.268 33.6433 103.208 33.37 103.088 33.13C102.968 32.89 102.788 32.7 102.548 32.56C102.308 32.4133 102.008 32.34 101.648 32.34H99.6877V31.67H101.518C102.058 31.67 102.514 31.7567 102.888 31.93C103.268 32.0967 103.554 32.3467 103.748 32.68C103.948 33.0067 104.048 33.4067 104.048 33.88V34.02C104.048 34.4933 103.948 34.8967 103.748 35.23C103.548 35.5567 103.261 35.8067 102.888 35.98C102.514 36.1467 102.058 36.23 101.518 36.23H99.6877ZM109.176 39.17C108.543 39.17 107.993 39.0567 107.526 38.83C107.059 38.6033 106.673 38.3033 106.366 37.93C106.059 37.5567 105.829 37.15 105.676 36.71C105.523 36.27 105.446 35.84 105.446 35.42V35.24C105.446 34.7933 105.523 34.35 105.676 33.91C105.836 33.4633 106.073 33.06 106.386 32.7C106.699 32.34 107.089 32.0533 107.556 31.84C108.023 31.62 108.563 31.51 109.176 31.51C109.796 31.51 110.336 31.62 110.796 31.84C111.263 32.0533 111.653 32.34 111.966 32.7C112.279 33.06 112.513 33.4633 112.666 33.91C112.826 34.35 112.906 34.7933 112.906 35.24V35.43C112.906 35.85 112.829 36.28 112.676 36.72C112.529 37.1533 112.299 37.5567 111.986 37.93C111.679 38.3033 111.293 38.6033 110.826 38.83C110.359 39.0567 109.809 39.17 109.176 39.17ZM109.176 38.47C109.643 38.47 110.059 38.3867 110.426 38.22C110.793 38.0467 111.103 37.8133 111.356 37.52C111.609 37.22 111.803 36.8833 111.936 36.51C112.069 36.1367 112.136 35.7467 112.136 35.34C112.136 34.9133 112.069 34.5133 111.936 34.14C111.803 33.7667 111.606 33.4367 111.346 33.15C111.093 32.8567 110.783 32.6267 110.416 32.46C110.049 32.2933 109.636 32.21 109.176 32.21C108.723 32.21 108.313 32.2933 107.946 32.46C107.579 32.6267 107.266 32.8567 107.006 33.15C106.753 33.4367 106.556 33.7667 106.416 34.14C106.283 34.5133 106.216 34.9133 106.216 35.34C106.216 35.7467 106.283 36.1367 106.416 36.51C106.549 36.8833 106.743 37.22 106.996 37.52C107.249 37.8133 107.559 38.0467 107.926 38.22C108.299 38.3867 108.716 38.47 109.176 38.47ZM115.208 39.04V38.34H117.198C117.691 38.34 118.121 38.26 118.488 38.1C118.861 37.94 119.174 37.7233 119.428 37.45C119.681 37.17 119.871 36.85 119.998 36.49C120.124 36.13 120.188 35.7467 120.188 35.34C120.188 34.92 120.121 34.53 119.988 34.17C119.861 33.81 119.671 33.4933 119.418 33.22C119.164 32.9467 118.851 32.7367 118.478 32.59C118.111 32.4433 117.684 32.37 117.198 32.37H115.208V31.67H117.118C117.771 31.67 118.338 31.77 118.818 31.97C119.298 32.17 119.698 32.4433 120.018 32.79C120.338 33.13 120.574 33.5133 120.728 33.94C120.881 34.3667 120.958 34.8 120.958 35.24V35.43C120.958 35.8633 120.881 36.2933 120.728 36.72C120.574 37.1467 120.341 37.5367 120.028 37.89C119.714 38.2367 119.314 38.5167 118.828 38.73C118.348 38.9367 117.778 39.04 117.118 39.04H115.208ZM114.648 39.04V31.67H115.408V39.04H114.648ZM125.437 39.17C124.77 39.17 124.217 39.0433 123.777 38.79C123.337 38.5367 123.007 38.1833 122.787 37.73C122.567 37.27 122.457 36.7433 122.457 36.15V31.7H123.217V36.24C123.217 36.6867 123.297 37.0767 123.457 37.41C123.624 37.7433 123.87 38.0033 124.197 38.19C124.53 38.3767 124.944 38.47 125.437 38.47C125.924 38.47 126.33 38.38 126.657 38.2C126.984 38.0133 127.23 37.7533 127.397 37.42C127.564 37.08 127.647 36.6867 127.647 36.24V31.7H128.407V36.15C128.407 36.7433 128.297 37.27 128.077 37.73C127.857 38.1833 127.527 38.5367 127.087 38.79C126.654 39.0433 126.104 39.17 125.437 39.17ZM133.656 39.17C133.003 39.17 132.443 39.0567 131.976 38.83C131.516 38.5967 131.14 38.2933 130.846 37.92C130.56 37.5467 130.35 37.1433 130.216 36.71C130.083 36.27 130.016 35.8433 130.016 35.43V35.24C130.016 34.7933 130.083 34.35 130.216 33.91C130.356 33.4633 130.57 33.06 130.856 32.7C131.15 32.34 131.523 32.0533 131.976 31.84C132.43 31.62 132.966 31.51 133.586 31.51C134.213 31.51 134.753 31.62 135.206 31.84C135.666 32.06 136.033 32.37 136.306 32.77C136.58 33.1633 136.746 33.63 136.806 34.17H136.036C135.983 33.7367 135.843 33.3767 135.616 33.09C135.39 32.7967 135.1 32.5767 134.746 32.43C134.4 32.2833 134.013 32.21 133.586 32.21C133.126 32.21 132.72 32.2933 132.366 32.46C132.02 32.62 131.73 32.8467 131.496 33.14C131.263 33.4267 131.086 33.76 130.966 34.14C130.846 34.5133 130.786 34.9133 130.786 35.34C130.786 35.7467 130.843 36.1367 130.956 36.51C131.076 36.8833 131.256 37.22 131.496 37.52C131.736 37.8133 132.036 38.0467 132.396 38.22C132.756 38.3867 133.176 38.47 133.656 38.47C134.323 38.47 134.883 38.3033 135.336 37.97C135.79 37.63 136.07 37.1433 136.176 36.51H136.946C136.873 37.01 136.7 37.4633 136.426 37.87C136.153 38.27 135.783 38.5867 135.316 38.82C134.856 39.0533 134.303 39.17 133.656 39.17ZM139.876 39V32.2H140.636V39H139.876ZM137.596 32.39V31.7H142.916V32.39H137.596ZM146.441 39.17C145.828 39.17 145.311 39.0733 144.891 38.88C144.471 38.68 144.151 38.4067 143.931 38.06C143.718 37.7067 143.611 37.31 143.611 36.87H144.371C144.371 37.15 144.438 37.4133 144.571 37.66C144.711 37.9 144.931 38.0967 145.231 38.25C145.538 38.3967 145.941 38.47 146.441 38.47C146.901 38.47 147.281 38.4033 147.581 38.27C147.888 38.1367 148.114 37.9567 148.261 37.73C148.414 37.5033 148.491 37.25 148.491 36.97C148.491 36.6167 148.351 36.3233 148.071 36.09C147.798 35.85 147.384 35.7067 146.831 35.66L145.991 35.58C145.364 35.5267 144.864 35.3333 144.491 35C144.124 34.66 143.941 34.2133 143.941 33.66C143.941 33.24 144.041 32.87 144.241 32.55C144.441 32.23 144.724 31.9767 145.091 31.79C145.464 31.6033 145.911 31.51 146.431 31.51C146.958 31.51 147.408 31.6067 147.781 31.8C148.161 31.9867 148.451 32.2467 148.651 32.58C148.851 32.9133 148.951 33.3 148.951 33.74H148.191C148.191 33.4733 148.131 33.2233 148.011 32.99C147.891 32.7567 147.701 32.57 147.441 32.43C147.181 32.2833 146.844 32.21 146.431 32.21C146.038 32.21 145.711 32.2767 145.451 32.41C145.198 32.5433 145.008 32.72 144.881 32.94C144.761 33.16 144.701 33.4 144.701 33.66C144.701 33.9867 144.818 34.2633 145.051 34.49C145.284 34.7167 145.621 34.8467 146.061 34.88L146.901 34.96C147.394 35 147.814 35.11 148.161 35.29C148.514 35.4633 148.784 35.6933 148.971 35.98C149.158 36.26 149.251 36.59 149.251 36.97C149.251 37.3967 149.134 37.7767 148.901 38.11C148.674 38.4433 148.351 38.7033 147.931 38.89C147.511 39.0767 147.014 39.17 146.441 39.17Z" fill="#2D2D2D"/>
</svg>
