<svg width="26" height="25" viewBox="0 0 26 25" fill="none" xmlns="http://www.w3.org/2000/svg">
<path d="M1.23967 6.72242C0.279185 5.81719 1.32947 5.71655 2.7253 3.99454C4.12112 2.27254 10.1994 -0.827116 13.2858 0.206125C16.3722 1.23936 4.14945 11.6567 5.10993 12.2602C6.07042 12.8637 14.751 6.38761 16.672 8.49986C18.5929 10.6121 11.5825 17.7706 14.6485 17.7706C17.7144 17.7706 26.7827 13.3881 25.5 15C24.2173 16.6119 13.2858 27 10.1994 23.3092C7.11298 19.6184 11.8617 13.0591 11.2214 13.0591C10.5811 13.0591 2.20015 19.6976 0.279185 16.3784C-1.64179 13.0591 7.00258 4.91191 6.36226 4.91192C5.72193 4.91193 2.20015 7.62765 1.23967 6.72242Z" fill="#202020"/>
</svg>
