<svg width="140" height="140" viewBox="0 0 140 140" fill="none" xmlns="http://www.w3.org/2000/svg">
<g filter="url(#filter0_d_55_3)">
<rect x="30" y="28" width="80" height="80" rx="10" fill="white" shape-rendering="crispEdges"/>
<path d="M42.4512 54.7385C40.1646 52.4845 42.665 52.2339 45.9879 47.9462C49.3109 43.6585 63.781 35.9405 71.1287 38.5132C78.4763 41.086 49.3783 67.0246 51.6649 68.5272C53.9514 70.0299 74.6168 53.9048 79.1899 59.1642C83.763 64.4236 67.0737 82.248 74.3726 82.248C81.6716 82.248 103.26 71.3357 100.206 75.3492C97.1525 79.3628 71.1287 105.229 63.781 96.0387C56.4334 86.8487 67.7384 70.5166 66.214 70.5165C64.6896 70.5165 44.7378 87.0461 40.1646 78.7813C35.5915 70.5165 56.1706 50.2304 54.6462 50.2304C53.1218 50.2305 44.7378 56.9924 42.4512 54.7385Z" fill="#202020"/>
</g>
<defs>
<filter id="filter0_d_55_3" x="0" y="0" width="140" height="140" filterUnits="userSpaceOnUse" color-interpolation-filters="sRGB">
<feFlood flood-opacity="0" result="BackgroundImageFix"/>
<feColorMatrix in="SourceAlpha" type="matrix" values="0 0 0 0 0 0 0 0 0 0 0 0 0 0 0 0 0 0 127 0" result="hardAlpha"/>
<feOffset dy="2"/>
<feGaussianBlur stdDeviation="15"/>
<feComposite in2="hardAlpha" operator="out"/>
<feColorMatrix type="matrix" values="0 0 0 0 0 0 0 0 0 0 0 0 0 0 0 0 0 0 0.05 0"/>
<feBlend mode="normal" in2="BackgroundImageFix" result="effect1_dropShadow_55_3"/>
<feBlend mode="normal" in="SourceGraphic" in2="effect1_dropShadow_55_3" result="shape"/>
</filter>
</defs>
</svg>
